# xmcd
#
# Track frame offsets: 
#        150
#        25575
#        46492
#        77639
#        104786
#        127104
#        150493
#        171721
#        183514
#        203695
#        229376
#        251919
#        279390
#        297325
#        324661
#
# Disc length: 4685 seconds
#
# Revision: 6
# Processed by: cddbd v1.5.2PL0 Copyright (c) Steve Scherf et al.
# Submitted via: ExactAudioCopy v0.99pb3
#
DISCID=e2124b0f
DTITLE=4Hero - Creating Patterns
DYEAR=2001
DGENRE=Electronic
TTITLE0=Conceptions
TTITLE1=Time
TTITLE2=Golden Solitude
TTITLE3=Twothesme
TTITLE4=Another Day
TTITLE5=Hold It Down
TTITLE6=Unique
TTITLE7=Something Nothing
TTITLE8=Ways Of Thought
TTITLE9=Eight
TTITLE10=Blank Cells
TTITLE11=Twelve Tribes
TTITLE12=2-BS-74638
TTITLE13=Les Fleur
TTITLE14=The Day Of The Greys
EXTD=
EXTT0=
EXTT1=
EXTT2=
EXTT3=
EXTT4=
EXTT5=
EXTT6=
EXTT7=
EXTT8=
EXTT9=
EXTT10=
EXTT11=
EXTT12=
EXTT13=
EXTT14=
PLAYORDER=
